<mxfile host="Electron" modified="2023-10-26T00:23:14.067Z" agent="Mozilla/5.0 (Windows NT 10.0; Win64; x64) AppleWebKit/537.36 (KHTML, like Gecko) draw.io/21.7.5 Chrome/114.0.5735.289 Electron/25.8.1 Safari/537.36" etag="J6XD2wbYkKvCHYEu4VAe" version="21.7.5" type="device">
  <diagram id="R2lEEEUBdFMjLlhIrx00" name="Page-1">
    <mxGraphModel dx="1036" dy="1754" grid="1" gridSize="10" guides="1" tooltips="1" connect="1" arrows="1" fold="1" page="1" pageScale="1" pageWidth="850" pageHeight="1100" math="0" shadow="0" extFonts="Permanent Marker^https://fonts.googleapis.com/css?family=Permanent+Marker">
      <root>
        <mxCell id="0" />
        <mxCell id="1" parent="0" />
        <mxCell id="Blp7HSIRBuZ5sZzYRlGd-1" value="email" style="ellipse;whiteSpace=wrap;html=1;align=center;" parent="1" vertex="1">
          <mxGeometry x="190" y="60" width="100" height="40" as="geometry" />
        </mxCell>
        <mxCell id="Blp7HSIRBuZ5sZzYRlGd-2" value="Account" style="whiteSpace=wrap;html=1;align=center;" parent="1" vertex="1">
          <mxGeometry x="280" y="190" width="100" height="40" as="geometry" />
        </mxCell>
        <mxCell id="Blp7HSIRBuZ5sZzYRlGd-3" value="accountId" style="ellipse;whiteSpace=wrap;html=1;align=center;fontStyle=4;" parent="1" vertex="1">
          <mxGeometry x="90" y="60" width="100" height="40" as="geometry" />
        </mxCell>
        <mxCell id="Blp7HSIRBuZ5sZzYRlGd-5" value="password" style="ellipse;whiteSpace=wrap;html=1;align=center;" parent="1" vertex="1">
          <mxGeometry x="280" y="60" width="100" height="40" as="geometry" />
        </mxCell>
        <mxCell id="Blp7HSIRBuZ5sZzYRlGd-7" value="role" style="ellipse;whiteSpace=wrap;html=1;align=center;" parent="1" vertex="1">
          <mxGeometry x="370" y="60" width="100" height="40" as="geometry" />
        </mxCell>
        <mxCell id="Blp7HSIRBuZ5sZzYRlGd-8" value="userId" style="ellipse;whiteSpace=wrap;html=1;align=center;" parent="1" vertex="1">
          <mxGeometry x="470" y="60" width="100" height="40" as="geometry" />
        </mxCell>
        <mxCell id="Blp7HSIRBuZ5sZzYRlGd-9" value="" style="endArrow=none;html=1;rounded=0;entryX=0.364;entryY=-0.005;entryDx=0;entryDy=0;entryPerimeter=0;exitX=0.628;exitY=1.035;exitDx=0;exitDy=0;exitPerimeter=0;" parent="1" source="Blp7HSIRBuZ5sZzYRlGd-3" target="Blp7HSIRBuZ5sZzYRlGd-2" edge="1">
          <mxGeometry relative="1" as="geometry">
            <mxPoint x="120" y="150" as="sourcePoint" />
            <mxPoint x="280" y="150" as="targetPoint" />
          </mxGeometry>
        </mxCell>
        <mxCell id="Blp7HSIRBuZ5sZzYRlGd-10" value="" style="endArrow=none;html=1;rounded=0;exitX=0.572;exitY=1.015;exitDx=0;exitDy=0;exitPerimeter=0;entryX=0.404;entryY=-0.025;entryDx=0;entryDy=0;entryPerimeter=0;" parent="1" source="Blp7HSIRBuZ5sZzYRlGd-1" target="Blp7HSIRBuZ5sZzYRlGd-2" edge="1">
          <mxGeometry relative="1" as="geometry">
            <mxPoint x="265" y="140" as="sourcePoint" />
            <mxPoint x="425" y="140" as="targetPoint" />
          </mxGeometry>
        </mxCell>
        <mxCell id="Blp7HSIRBuZ5sZzYRlGd-11" value="" style="endArrow=none;html=1;rounded=0;entryX=0.596;entryY=1.075;entryDx=0;entryDy=0;entryPerimeter=0;exitX=0.62;exitY=-0.045;exitDx=0;exitDy=0;exitPerimeter=0;" parent="1" source="Blp7HSIRBuZ5sZzYRlGd-2" target="Blp7HSIRBuZ5sZzYRlGd-7" edge="1">
          <mxGeometry relative="1" as="geometry">
            <mxPoint x="360" y="160" as="sourcePoint" />
            <mxPoint x="520" y="160" as="targetPoint" />
          </mxGeometry>
        </mxCell>
        <mxCell id="Blp7HSIRBuZ5sZzYRlGd-12" value="" style="endArrow=none;html=1;rounded=0;exitX=0.5;exitY=1;exitDx=0;exitDy=0;entryX=0.5;entryY=0;entryDx=0;entryDy=0;" parent="1" source="Blp7HSIRBuZ5sZzYRlGd-5" target="Blp7HSIRBuZ5sZzYRlGd-2" edge="1">
          <mxGeometry relative="1" as="geometry">
            <mxPoint x="290" y="150" as="sourcePoint" />
            <mxPoint x="450" y="150" as="targetPoint" />
          </mxGeometry>
        </mxCell>
        <mxCell id="Blp7HSIRBuZ5sZzYRlGd-13" value="" style="endArrow=none;html=1;rounded=0;entryX=0.436;entryY=1.055;entryDx=0;entryDy=0;entryPerimeter=0;exitX=0.75;exitY=0;exitDx=0;exitDy=0;" parent="1" source="Blp7HSIRBuZ5sZzYRlGd-2" target="Blp7HSIRBuZ5sZzYRlGd-8" edge="1">
          <mxGeometry relative="1" as="geometry">
            <mxPoint x="360" y="190" as="sourcePoint" />
            <mxPoint x="520" y="190" as="targetPoint" />
          </mxGeometry>
        </mxCell>
        <mxCell id="Blp7HSIRBuZ5sZzYRlGd-15" value="Admin&lt;br&gt;" style="whiteSpace=wrap;html=1;align=center;" parent="1" vertex="1">
          <mxGeometry x="210" y="400" width="100" height="40" as="geometry" />
        </mxCell>
        <mxCell id="Blp7HSIRBuZ5sZzYRlGd-18" value="name" style="ellipse;whiteSpace=wrap;html=1;align=center;" parent="1" vertex="1">
          <mxGeometry x="10" y="320" width="100" height="40" as="geometry" />
        </mxCell>
        <mxCell id="Blp7HSIRBuZ5sZzYRlGd-19" value="address" style="ellipse;whiteSpace=wrap;html=1;align=center;" parent="1" vertex="1">
          <mxGeometry x="10" y="380" width="100" height="40" as="geometry" />
        </mxCell>
        <mxCell id="Blp7HSIRBuZ5sZzYRlGd-20" value="AdminID" style="ellipse;whiteSpace=wrap;html=1;align=center;fontStyle=4;" parent="1" vertex="1">
          <mxGeometry x="10" y="270" width="100" height="40" as="geometry" />
        </mxCell>
        <mxCell id="Blp7HSIRBuZ5sZzYRlGd-22" value="sex" style="ellipse;whiteSpace=wrap;html=1;align=center;" parent="1" vertex="1">
          <mxGeometry x="10" y="430" width="100" height="40" as="geometry" />
        </mxCell>
        <mxCell id="Blp7HSIRBuZ5sZzYRlGd-23" value="birthdate" style="ellipse;whiteSpace=wrap;html=1;align=center;" parent="1" vertex="1">
          <mxGeometry x="10" y="480" width="100" height="40" as="geometry" />
        </mxCell>
        <mxCell id="Blp7HSIRBuZ5sZzYRlGd-24" value="phone" style="ellipse;whiteSpace=wrap;html=1;align=center;" parent="1" vertex="1">
          <mxGeometry x="10" y="530" width="100" height="40" as="geometry" />
        </mxCell>
        <mxCell id="Blp7HSIRBuZ5sZzYRlGd-27" value="salary" style="ellipse;whiteSpace=wrap;html=1;align=center;" parent="1" vertex="1">
          <mxGeometry x="10" y="590" width="100" height="40" as="geometry" />
        </mxCell>
        <mxCell id="Blp7HSIRBuZ5sZzYRlGd-28" value="dateStart" style="ellipse;whiteSpace=wrap;html=1;align=center;" parent="1" vertex="1">
          <mxGeometry x="10" y="640" width="100" height="40" as="geometry" />
        </mxCell>
        <mxCell id="Blp7HSIRBuZ5sZzYRlGd-31" value="" style="endArrow=none;html=1;rounded=0;exitX=1;exitY=0.5;exitDx=0;exitDy=0;entryX=0;entryY=0.5;entryDx=0;entryDy=0;" parent="1" source="Blp7HSIRBuZ5sZzYRlGd-20" target="Blp7HSIRBuZ5sZzYRlGd-15" edge="1">
          <mxGeometry relative="1" as="geometry">
            <mxPoint x="170" y="310" as="sourcePoint" />
            <mxPoint x="330" y="310" as="targetPoint" />
          </mxGeometry>
        </mxCell>
        <mxCell id="Blp7HSIRBuZ5sZzYRlGd-32" value="" style="endArrow=none;html=1;rounded=0;exitX=0.988;exitY=0.735;exitDx=0;exitDy=0;exitPerimeter=0;entryX=0;entryY=0.75;entryDx=0;entryDy=0;" parent="1" source="Blp7HSIRBuZ5sZzYRlGd-18" target="Blp7HSIRBuZ5sZzYRlGd-15" edge="1">
          <mxGeometry relative="1" as="geometry">
            <mxPoint x="150" y="450" as="sourcePoint" />
            <mxPoint x="310" y="450" as="targetPoint" />
          </mxGeometry>
        </mxCell>
        <mxCell id="Blp7HSIRBuZ5sZzYRlGd-33" value="" style="endArrow=none;html=1;rounded=0;exitX=1;exitY=0.5;exitDx=0;exitDy=0;entryX=0;entryY=0.5;entryDx=0;entryDy=0;" parent="1" source="Blp7HSIRBuZ5sZzYRlGd-19" target="Blp7HSIRBuZ5sZzYRlGd-15" edge="1">
          <mxGeometry relative="1" as="geometry">
            <mxPoint x="200" y="500" as="sourcePoint" />
            <mxPoint x="200" y="430" as="targetPoint" />
          </mxGeometry>
        </mxCell>
        <mxCell id="Blp7HSIRBuZ5sZzYRlGd-34" value="" style="endArrow=none;html=1;rounded=0;exitX=0.956;exitY=0.705;exitDx=0;exitDy=0;exitPerimeter=0;entryX=0;entryY=0.75;entryDx=0;entryDy=0;" parent="1" source="Blp7HSIRBuZ5sZzYRlGd-22" target="Blp7HSIRBuZ5sZzYRlGd-15" edge="1">
          <mxGeometry relative="1" as="geometry">
            <mxPoint x="190" y="500" as="sourcePoint" />
            <mxPoint x="350" y="500" as="targetPoint" />
          </mxGeometry>
        </mxCell>
        <mxCell id="Blp7HSIRBuZ5sZzYRlGd-35" value="" style="endArrow=none;html=1;rounded=0;exitX=1;exitY=0.5;exitDx=0;exitDy=0;entryX=0;entryY=0.75;entryDx=0;entryDy=0;" parent="1" source="Blp7HSIRBuZ5sZzYRlGd-23" target="Blp7HSIRBuZ5sZzYRlGd-15" edge="1">
          <mxGeometry relative="1" as="geometry">
            <mxPoint x="180" y="500" as="sourcePoint" />
            <mxPoint x="340" y="500" as="targetPoint" />
          </mxGeometry>
        </mxCell>
        <mxCell id="Blp7HSIRBuZ5sZzYRlGd-36" value="" style="endArrow=none;html=1;rounded=0;exitX=1;exitY=0.5;exitDx=0;exitDy=0;entryX=0;entryY=0.75;entryDx=0;entryDy=0;" parent="1" source="Blp7HSIRBuZ5sZzYRlGd-24" target="Blp7HSIRBuZ5sZzYRlGd-15" edge="1">
          <mxGeometry relative="1" as="geometry">
            <mxPoint x="150" y="450" as="sourcePoint" />
            <mxPoint x="310" y="450" as="targetPoint" />
          </mxGeometry>
        </mxCell>
        <mxCell id="Blp7HSIRBuZ5sZzYRlGd-37" value="" style="endArrow=none;html=1;rounded=0;exitX=1;exitY=0.5;exitDx=0;exitDy=0;entryX=0;entryY=0.5;entryDx=0;entryDy=0;" parent="1" source="Blp7HSIRBuZ5sZzYRlGd-27" target="Blp7HSIRBuZ5sZzYRlGd-15" edge="1">
          <mxGeometry relative="1" as="geometry">
            <mxPoint x="190" y="540" as="sourcePoint" />
            <mxPoint x="350" y="540" as="targetPoint" />
          </mxGeometry>
        </mxCell>
        <mxCell id="Blp7HSIRBuZ5sZzYRlGd-38" value="" style="endArrow=none;html=1;rounded=0;exitX=1;exitY=0.5;exitDx=0;exitDy=0;entryX=0;entryY=0.5;entryDx=0;entryDy=0;" parent="1" source="Blp7HSIRBuZ5sZzYRlGd-28" target="Blp7HSIRBuZ5sZzYRlGd-15" edge="1">
          <mxGeometry relative="1" as="geometry">
            <mxPoint x="160" y="610" as="sourcePoint" />
            <mxPoint x="320" y="610" as="targetPoint" />
          </mxGeometry>
        </mxCell>
        <mxCell id="Blp7HSIRBuZ5sZzYRlGd-39" value="Shipper" style="whiteSpace=wrap;html=1;align=center;" parent="1" vertex="1">
          <mxGeometry x="375" y="500" width="100" height="40" as="geometry" />
        </mxCell>
        <mxCell id="Blp7HSIRBuZ5sZzYRlGd-40" value="ShiperID" style="ellipse;whiteSpace=wrap;html=1;align=center;fontStyle=4;" parent="1" vertex="1">
          <mxGeometry x="200" y="710" width="100" height="40" as="geometry" />
        </mxCell>
        <mxCell id="Blp7HSIRBuZ5sZzYRlGd-42" value="ShipName" style="ellipse;whiteSpace=wrap;html=1;align=center;" parent="1" vertex="1">
          <mxGeometry x="270" y="710" width="100" height="40" as="geometry" />
        </mxCell>
        <mxCell id="Blp7HSIRBuZ5sZzYRlGd-43" value="Address" style="ellipse;whiteSpace=wrap;html=1;align=center;" parent="1" vertex="1">
          <mxGeometry x="350" y="710" width="100" height="40" as="geometry" />
        </mxCell>
        <mxCell id="Blp7HSIRBuZ5sZzYRlGd-44" value="sex" style="ellipse;whiteSpace=wrap;html=1;align=center;" parent="1" vertex="1">
          <mxGeometry x="420" y="710" width="100" height="40" as="geometry" />
        </mxCell>
        <mxCell id="Blp7HSIRBuZ5sZzYRlGd-45" value="birthday" style="ellipse;whiteSpace=wrap;html=1;align=center;" parent="1" vertex="1">
          <mxGeometry x="490" y="710" width="100" height="40" as="geometry" />
        </mxCell>
        <mxCell id="Blp7HSIRBuZ5sZzYRlGd-46" value="salary" style="ellipse;whiteSpace=wrap;html=1;align=center;" parent="1" vertex="1">
          <mxGeometry x="560" y="720" width="100" height="40" as="geometry" />
        </mxCell>
        <mxCell id="Blp7HSIRBuZ5sZzYRlGd-47" value="phone" style="ellipse;whiteSpace=wrap;html=1;align=center;" parent="1" vertex="1">
          <mxGeometry x="630" y="720" width="100" height="40" as="geometry" />
        </mxCell>
        <mxCell id="Blp7HSIRBuZ5sZzYRlGd-49" value="dateStart" style="ellipse;whiteSpace=wrap;html=1;align=center;" parent="1" vertex="1">
          <mxGeometry x="130" y="710" width="100" height="40" as="geometry" />
        </mxCell>
        <mxCell id="Blp7HSIRBuZ5sZzYRlGd-50" value="" style="endArrow=none;html=1;rounded=0;entryX=0.426;entryY=0.995;entryDx=0;entryDy=0;entryPerimeter=0;exitX=0.664;exitY=-0.105;exitDx=0;exitDy=0;exitPerimeter=0;" parent="1" source="Blp7HSIRBuZ5sZzYRlGd-49" target="Blp7HSIRBuZ5sZzYRlGd-39" edge="1">
          <mxGeometry relative="1" as="geometry">
            <mxPoint x="300" y="510" as="sourcePoint" />
            <mxPoint x="460" y="510" as="targetPoint" />
          </mxGeometry>
        </mxCell>
        <mxCell id="Blp7HSIRBuZ5sZzYRlGd-51" value="" style="endArrow=none;html=1;rounded=0;entryX=0.5;entryY=1;entryDx=0;entryDy=0;exitX=0.5;exitY=0;exitDx=0;exitDy=0;" parent="1" source="Blp7HSIRBuZ5sZzYRlGd-40" target="Blp7HSIRBuZ5sZzYRlGd-39" edge="1">
          <mxGeometry relative="1" as="geometry">
            <mxPoint x="330" y="560" as="sourcePoint" />
            <mxPoint x="490" y="560" as="targetPoint" />
          </mxGeometry>
        </mxCell>
        <mxCell id="Blp7HSIRBuZ5sZzYRlGd-52" value="" style="endArrow=none;html=1;rounded=0;exitX=0.5;exitY=0;exitDx=0;exitDy=0;entryX=0.5;entryY=1;entryDx=0;entryDy=0;" parent="1" source="Blp7HSIRBuZ5sZzYRlGd-42" target="Blp7HSIRBuZ5sZzYRlGd-39" edge="1">
          <mxGeometry relative="1" as="geometry">
            <mxPoint x="320" y="610" as="sourcePoint" />
            <mxPoint x="430" y="440" as="targetPoint" />
          </mxGeometry>
        </mxCell>
        <mxCell id="Blp7HSIRBuZ5sZzYRlGd-53" value="" style="endArrow=none;html=1;rounded=0;entryX=0.586;entryY=0.975;entryDx=0;entryDy=0;exitX=0.5;exitY=0;exitDx=0;exitDy=0;entryPerimeter=0;" parent="1" source="Blp7HSIRBuZ5sZzYRlGd-43" target="Blp7HSIRBuZ5sZzYRlGd-39" edge="1">
          <mxGeometry relative="1" as="geometry">
            <mxPoint x="420" y="590" as="sourcePoint" />
            <mxPoint x="580" y="590" as="targetPoint" />
          </mxGeometry>
        </mxCell>
        <mxCell id="Blp7HSIRBuZ5sZzYRlGd-54" value="" style="endArrow=none;html=1;rounded=0;entryX=0.5;entryY=0;entryDx=0;entryDy=0;" parent="1" source="Blp7HSIRBuZ5sZzYRlGd-39" target="Blp7HSIRBuZ5sZzYRlGd-44" edge="1">
          <mxGeometry relative="1" as="geometry">
            <mxPoint x="470" y="610" as="sourcePoint" />
            <mxPoint x="490" y="710" as="targetPoint" />
          </mxGeometry>
        </mxCell>
        <mxCell id="Blp7HSIRBuZ5sZzYRlGd-55" value="" style="endArrow=none;html=1;rounded=0;entryX=0.408;entryY=-0.005;entryDx=0;entryDy=0;entryPerimeter=0;exitX=0.5;exitY=1;exitDx=0;exitDy=0;" parent="1" source="Blp7HSIRBuZ5sZzYRlGd-39" target="Blp7HSIRBuZ5sZzYRlGd-45" edge="1">
          <mxGeometry relative="1" as="geometry">
            <mxPoint x="440" y="440" as="sourcePoint" />
            <mxPoint x="670" y="520" as="targetPoint" />
          </mxGeometry>
        </mxCell>
        <mxCell id="Blp7HSIRBuZ5sZzYRlGd-56" value="" style="endArrow=none;html=1;rounded=0;entryX=0.288;entryY=0.015;entryDx=0;entryDy=0;entryPerimeter=0;exitX=0.618;exitY=0.985;exitDx=0;exitDy=0;exitPerimeter=0;" parent="1" source="Blp7HSIRBuZ5sZzYRlGd-39" target="Blp7HSIRBuZ5sZzYRlGd-46" edge="1">
          <mxGeometry relative="1" as="geometry">
            <mxPoint x="440" y="440" as="sourcePoint" />
            <mxPoint x="690" y="520" as="targetPoint" />
          </mxGeometry>
        </mxCell>
        <mxCell id="Blp7HSIRBuZ5sZzYRlGd-57" value="" style="endArrow=none;html=1;rounded=0;exitX=0.602;exitY=1.075;exitDx=0;exitDy=0;exitPerimeter=0;entryX=0.5;entryY=0;entryDx=0;entryDy=0;" parent="1" source="Blp7HSIRBuZ5sZzYRlGd-39" target="Blp7HSIRBuZ5sZzYRlGd-47" edge="1">
          <mxGeometry relative="1" as="geometry">
            <mxPoint x="570" y="510" as="sourcePoint" />
            <mxPoint x="730" y="510" as="targetPoint" />
          </mxGeometry>
        </mxCell>
        <mxCell id="Blp7HSIRBuZ5sZzYRlGd-58" value="Customer" style="whiteSpace=wrap;html=1;align=center;" parent="1" vertex="1">
          <mxGeometry x="780" y="180" width="100" height="40" as="geometry" />
        </mxCell>
        <mxCell id="Blp7HSIRBuZ5sZzYRlGd-59" value="CusID" style="ellipse;whiteSpace=wrap;html=1;align=center;fontStyle=4;" parent="1" vertex="1">
          <mxGeometry x="610" y="-40" width="100" height="40" as="geometry" />
        </mxCell>
        <mxCell id="Blp7HSIRBuZ5sZzYRlGd-60" value="cusName" style="ellipse;whiteSpace=wrap;html=1;align=center;" parent="1" vertex="1">
          <mxGeometry x="640" y="-80" width="100" height="40" as="geometry" />
        </mxCell>
        <mxCell id="Blp7HSIRBuZ5sZzYRlGd-61" value="address" style="ellipse;whiteSpace=wrap;html=1;align=center;" parent="1" vertex="1">
          <mxGeometry x="700" y="-110" width="100" height="40" as="geometry" />
        </mxCell>
        <mxCell id="Blp7HSIRBuZ5sZzYRlGd-62" value="phone" style="ellipse;whiteSpace=wrap;html=1;align=center;" parent="1" vertex="1">
          <mxGeometry x="780" y="-110" width="100" height="40" as="geometry" />
        </mxCell>
        <mxCell id="Blp7HSIRBuZ5sZzYRlGd-63" value="sex" style="ellipse;whiteSpace=wrap;html=1;align=center;" parent="1" vertex="1">
          <mxGeometry x="850" y="-90" width="100" height="40" as="geometry" />
        </mxCell>
        <mxCell id="Blp7HSIRBuZ5sZzYRlGd-64" value="birthday" style="ellipse;whiteSpace=wrap;html=1;align=center;" parent="1" vertex="1">
          <mxGeometry x="920" y="-70" width="100" height="40" as="geometry" />
        </mxCell>
        <mxCell id="Blp7HSIRBuZ5sZzYRlGd-66" value="Status" style="ellipse;whiteSpace=wrap;html=1;align=center;" parent="1" vertex="1">
          <mxGeometry x="550" y="60" width="100" height="40" as="geometry" />
        </mxCell>
        <mxCell id="Blp7HSIRBuZ5sZzYRlGd-67" value="" style="endArrow=none;html=1;rounded=0;entryX=0.42;entryY=0.995;entryDx=0;entryDy=0;entryPerimeter=0;exitX=0.75;exitY=0;exitDx=0;exitDy=0;" parent="1" source="Blp7HSIRBuZ5sZzYRlGd-2" target="Blp7HSIRBuZ5sZzYRlGd-66" edge="1">
          <mxGeometry relative="1" as="geometry">
            <mxPoint x="460" y="220" as="sourcePoint" />
            <mxPoint x="620" y="220" as="targetPoint" />
          </mxGeometry>
        </mxCell>
        <mxCell id="Blp7HSIRBuZ5sZzYRlGd-68" value="" style="endArrow=none;html=1;rounded=0;entryX=0.624;entryY=0.055;entryDx=0;entryDy=0;entryPerimeter=0;exitX=0.588;exitY=1.035;exitDx=0;exitDy=0;exitPerimeter=0;" parent="1" source="Blp7HSIRBuZ5sZzYRlGd-59" target="Blp7HSIRBuZ5sZzYRlGd-58" edge="1">
          <mxGeometry relative="1" as="geometry">
            <mxPoint x="750" y="80" as="sourcePoint" />
            <mxPoint x="910" y="80" as="targetPoint" />
          </mxGeometry>
        </mxCell>
        <mxCell id="Blp7HSIRBuZ5sZzYRlGd-69" value="" style="endArrow=none;html=1;rounded=0;exitX=0.776;exitY=0.995;exitDx=0;exitDy=0;exitPerimeter=0;entryX=0.62;entryY=0.005;entryDx=0;entryDy=0;entryPerimeter=0;" parent="1" source="Blp7HSIRBuZ5sZzYRlGd-60" target="Blp7HSIRBuZ5sZzYRlGd-58" edge="1">
          <mxGeometry relative="1" as="geometry">
            <mxPoint x="740" y="60" as="sourcePoint" />
            <mxPoint x="900" y="60" as="targetPoint" />
          </mxGeometry>
        </mxCell>
        <mxCell id="Blp7HSIRBuZ5sZzYRlGd-70" value="" style="endArrow=none;html=1;rounded=0;exitX=0.5;exitY=1;exitDx=0;exitDy=0;entryX=0.672;entryY=0.055;entryDx=0;entryDy=0;entryPerimeter=0;" parent="1" source="Blp7HSIRBuZ5sZzYRlGd-61" target="Blp7HSIRBuZ5sZzYRlGd-58" edge="1">
          <mxGeometry relative="1" as="geometry">
            <mxPoint x="820" y="10" as="sourcePoint" />
            <mxPoint x="980" y="10" as="targetPoint" />
          </mxGeometry>
        </mxCell>
        <mxCell id="Blp7HSIRBuZ5sZzYRlGd-71" value="" style="endArrow=none;html=1;rounded=0;exitX=0.432;exitY=1.085;exitDx=0;exitDy=0;exitPerimeter=0;entryX=0.75;entryY=0;entryDx=0;entryDy=0;" parent="1" source="Blp7HSIRBuZ5sZzYRlGd-62" target="Blp7HSIRBuZ5sZzYRlGd-58" edge="1">
          <mxGeometry relative="1" as="geometry">
            <mxPoint x="850" y="30" as="sourcePoint" />
            <mxPoint x="1010" y="30" as="targetPoint" />
          </mxGeometry>
        </mxCell>
        <mxCell id="Blp7HSIRBuZ5sZzYRlGd-72" value="" style="endArrow=none;html=1;rounded=0;exitX=0.436;exitY=1.005;exitDx=0;exitDy=0;exitPerimeter=0;entryX=0.75;entryY=0;entryDx=0;entryDy=0;" parent="1" source="Blp7HSIRBuZ5sZzYRlGd-63" target="Blp7HSIRBuZ5sZzYRlGd-58" edge="1">
          <mxGeometry relative="1" as="geometry">
            <mxPoint x="890" y="50" as="sourcePoint" />
            <mxPoint x="1050" y="50" as="targetPoint" />
          </mxGeometry>
        </mxCell>
        <mxCell id="Blp7HSIRBuZ5sZzYRlGd-73" value="" style="endArrow=none;html=1;rounded=0;exitX=0.304;exitY=1.025;exitDx=0;exitDy=0;exitPerimeter=0;" parent="1" source="Blp7HSIRBuZ5sZzYRlGd-64" edge="1">
          <mxGeometry relative="1" as="geometry">
            <mxPoint x="910" y="90" as="sourcePoint" />
            <mxPoint x="840" y="180" as="targetPoint" />
          </mxGeometry>
        </mxCell>
        <mxCell id="fRflyIPm7G6XwhnqCdcD-1" value="Flower&lt;br&gt;" style="whiteSpace=wrap;html=1;align=center;" parent="1" vertex="1">
          <mxGeometry x="950" y="650" width="100" height="40" as="geometry" />
        </mxCell>
        <mxCell id="fRflyIPm7G6XwhnqCdcD-2" value="FlowerName" style="ellipse;whiteSpace=wrap;html=1;align=center;" parent="1" vertex="1">
          <mxGeometry x="830" y="770" width="100" height="40" as="geometry" />
        </mxCell>
        <mxCell id="fRflyIPm7G6XwhnqCdcD-3" value="FlowerId" style="ellipse;whiteSpace=wrap;html=1;align=center;fontStyle=4;" parent="1" vertex="1">
          <mxGeometry x="770" y="750" width="100" height="40" as="geometry" />
        </mxCell>
        <mxCell id="fRflyIPm7G6XwhnqCdcD-4" value="categoryId" style="ellipse;whiteSpace=wrap;html=1;align=center;" parent="1" vertex="1">
          <mxGeometry x="920" y="770" width="100" height="40" as="geometry" />
        </mxCell>
        <mxCell id="fRflyIPm7G6XwhnqCdcD-5" value="price" style="ellipse;whiteSpace=wrap;html=1;align=center;" parent="1" vertex="1">
          <mxGeometry x="1010" y="770" width="100" height="40" as="geometry" />
        </mxCell>
        <mxCell id="fRflyIPm7G6XwhnqCdcD-6" value="urlImg" style="ellipse;whiteSpace=wrap;html=1;align=center;" parent="1" vertex="1">
          <mxGeometry x="1090" y="770" width="100" height="40" as="geometry" />
        </mxCell>
        <mxCell id="fRflyIPm7G6XwhnqCdcD-7" value="Category&lt;br&gt;" style="whiteSpace=wrap;html=1;align=center;" parent="1" vertex="1">
          <mxGeometry x="1330" y="630" width="100" height="40" as="geometry" />
        </mxCell>
        <mxCell id="fRflyIPm7G6XwhnqCdcD-8" value="CategoryId" style="ellipse;whiteSpace=wrap;html=1;align=center;fontStyle=4;" parent="1" vertex="1">
          <mxGeometry x="1290" y="750" width="100" height="40" as="geometry" />
        </mxCell>
        <mxCell id="fRflyIPm7G6XwhnqCdcD-9" value="CategoryName" style="ellipse;whiteSpace=wrap;html=1;align=center;" parent="1" vertex="1">
          <mxGeometry x="1380" y="750" width="100" height="40" as="geometry" />
        </mxCell>
        <mxCell id="fRflyIPm7G6XwhnqCdcD-11" value="" style="endArrow=none;html=1;rounded=0;entryX=0.5;entryY=1;entryDx=0;entryDy=0;exitX=0.572;exitY=0.005;exitDx=0;exitDy=0;exitPerimeter=0;" parent="1" source="fRflyIPm7G6XwhnqCdcD-3" target="fRflyIPm7G6XwhnqCdcD-1" edge="1">
          <mxGeometry relative="1" as="geometry">
            <mxPoint x="840" y="720" as="sourcePoint" />
            <mxPoint x="1000" y="720" as="targetPoint" />
          </mxGeometry>
        </mxCell>
        <mxCell id="fRflyIPm7G6XwhnqCdcD-12" value="" style="endArrow=none;html=1;rounded=0;entryX=0.644;entryY=0.085;entryDx=0;entryDy=0;entryPerimeter=0;exitX=0.5;exitY=1;exitDx=0;exitDy=0;" parent="1" source="fRflyIPm7G6XwhnqCdcD-1" target="fRflyIPm7G6XwhnqCdcD-2" edge="1">
          <mxGeometry relative="1" as="geometry">
            <mxPoint x="990" y="670" as="sourcePoint" />
            <mxPoint x="1110" y="730" as="targetPoint" />
          </mxGeometry>
        </mxCell>
        <mxCell id="fRflyIPm7G6XwhnqCdcD-13" value="" style="endArrow=none;html=1;rounded=0;exitX=0.5;exitY=1;exitDx=0;exitDy=0;entryX=0.584;entryY=0.005;entryDx=0;entryDy=0;entryPerimeter=0;" parent="1" source="fRflyIPm7G6XwhnqCdcD-1" target="fRflyIPm7G6XwhnqCdcD-4" edge="1">
          <mxGeometry relative="1" as="geometry">
            <mxPoint x="1030" y="720" as="sourcePoint" />
            <mxPoint x="1190" y="720" as="targetPoint" />
          </mxGeometry>
        </mxCell>
        <mxCell id="fRflyIPm7G6XwhnqCdcD-14" value="" style="endArrow=none;html=1;rounded=0;exitX=0.5;exitY=1;exitDx=0;exitDy=0;entryX=0.5;entryY=0;entryDx=0;entryDy=0;" parent="1" source="fRflyIPm7G6XwhnqCdcD-1" target="fRflyIPm7G6XwhnqCdcD-5" edge="1">
          <mxGeometry relative="1" as="geometry">
            <mxPoint x="1020" y="730" as="sourcePoint" />
            <mxPoint x="1180" y="730" as="targetPoint" />
          </mxGeometry>
        </mxCell>
        <mxCell id="fRflyIPm7G6XwhnqCdcD-15" value="" style="endArrow=none;html=1;rounded=0;entryX=0.364;entryY=0.045;entryDx=0;entryDy=0;entryPerimeter=0;exitX=0.572;exitY=0.995;exitDx=0;exitDy=0;exitPerimeter=0;" parent="1" source="fRflyIPm7G6XwhnqCdcD-1" target="fRflyIPm7G6XwhnqCdcD-6" edge="1">
          <mxGeometry relative="1" as="geometry">
            <mxPoint x="1000" y="690" as="sourcePoint" />
            <mxPoint x="1220" y="720" as="targetPoint" />
          </mxGeometry>
        </mxCell>
        <mxCell id="fRflyIPm7G6XwhnqCdcD-16" value="" style="endArrow=none;html=1;rounded=0;entryX=0.436;entryY=1.005;entryDx=0;entryDy=0;entryPerimeter=0;exitX=0.5;exitY=0;exitDx=0;exitDy=0;" parent="1" source="fRflyIPm7G6XwhnqCdcD-8" target="fRflyIPm7G6XwhnqCdcD-7" edge="1">
          <mxGeometry relative="1" as="geometry">
            <mxPoint x="1210" y="680" as="sourcePoint" />
            <mxPoint x="1370" y="680" as="targetPoint" />
          </mxGeometry>
        </mxCell>
        <mxCell id="fRflyIPm7G6XwhnqCdcD-17" value="" style="endArrow=none;html=1;rounded=0;entryX=0.5;entryY=0;entryDx=0;entryDy=0;exitX=0.5;exitY=1;exitDx=0;exitDy=0;" parent="1" source="fRflyIPm7G6XwhnqCdcD-7" target="fRflyIPm7G6XwhnqCdcD-9" edge="1">
          <mxGeometry relative="1" as="geometry">
            <mxPoint x="1390" y="670" as="sourcePoint" />
            <mxPoint x="1580" y="720" as="targetPoint" />
          </mxGeometry>
        </mxCell>
        <mxCell id="fRflyIPm7G6XwhnqCdcD-19" value="Order" style="whiteSpace=wrap;html=1;align=center;" parent="1" vertex="1">
          <mxGeometry x="680" y="400" width="100" height="40" as="geometry" />
        </mxCell>
        <mxCell id="fRflyIPm7G6XwhnqCdcD-20" value="Status" style="ellipse;whiteSpace=wrap;html=1;align=center;" parent="1" vertex="1">
          <mxGeometry x="1180" y="770" width="100" height="40" as="geometry" />
        </mxCell>
        <mxCell id="fRflyIPm7G6XwhnqCdcD-21" value="" style="endArrow=none;html=1;rounded=0;exitX=0.636;exitY=1.025;exitDx=0;exitDy=0;exitPerimeter=0;entryX=0.608;entryY=0.065;entryDx=0;entryDy=0;entryPerimeter=0;" parent="1" source="fRflyIPm7G6XwhnqCdcD-1" target="fRflyIPm7G6XwhnqCdcD-20" edge="1">
          <mxGeometry relative="1" as="geometry">
            <mxPoint x="1140" y="720" as="sourcePoint" />
            <mxPoint x="1300" y="720" as="targetPoint" />
          </mxGeometry>
        </mxCell>
        <mxCell id="fRflyIPm7G6XwhnqCdcD-22" value="OrderId" style="ellipse;whiteSpace=wrap;html=1;align=center;fontStyle=4;" parent="1" vertex="1">
          <mxGeometry x="570" y="500" width="100" height="40" as="geometry" />
        </mxCell>
        <mxCell id="fRflyIPm7G6XwhnqCdcD-24" value="cusId" style="ellipse;whiteSpace=wrap;html=1;align=center;" parent="1" vertex="1">
          <mxGeometry x="650" y="500" width="100" height="40" as="geometry" />
        </mxCell>
        <mxCell id="fRflyIPm7G6XwhnqCdcD-25" value="dateOrder&lt;br&gt;" style="ellipse;whiteSpace=wrap;html=1;align=center;" parent="1" vertex="1">
          <mxGeometry x="720" y="500" width="100" height="40" as="geometry" />
        </mxCell>
        <mxCell id="fRflyIPm7G6XwhnqCdcD-26" value="priceShip" style="ellipse;whiteSpace=wrap;html=1;align=center;" parent="1" vertex="1">
          <mxGeometry x="790" y="500" width="100" height="40" as="geometry" />
        </mxCell>
        <mxCell id="fRflyIPm7G6XwhnqCdcD-27" value="status" style="ellipse;whiteSpace=wrap;html=1;align=center;" parent="1" vertex="1">
          <mxGeometry x="860" y="500" width="100" height="40" as="geometry" />
        </mxCell>
        <mxCell id="fRflyIPm7G6XwhnqCdcD-28" value="" style="endArrow=none;html=1;rounded=0;exitX=0.38;exitY=-0.005;exitDx=0;exitDy=0;exitPerimeter=0;entryX=0.34;entryY=1.025;entryDx=0;entryDy=0;entryPerimeter=0;" parent="1" source="fRflyIPm7G6XwhnqCdcD-22" target="fRflyIPm7G6XwhnqCdcD-19" edge="1">
          <mxGeometry relative="1" as="geometry">
            <mxPoint x="540" y="450" as="sourcePoint" />
            <mxPoint x="700" y="450" as="targetPoint" />
          </mxGeometry>
        </mxCell>
        <mxCell id="fRflyIPm7G6XwhnqCdcD-29" value="" style="endArrow=none;html=1;rounded=0;exitX=0.404;exitY=1.025;exitDx=0;exitDy=0;exitPerimeter=0;entryX=0.5;entryY=0;entryDx=0;entryDy=0;" parent="1" source="fRflyIPm7G6XwhnqCdcD-19" target="fRflyIPm7G6XwhnqCdcD-24" edge="1">
          <mxGeometry relative="1" as="geometry">
            <mxPoint x="720" y="480" as="sourcePoint" />
            <mxPoint x="880" y="480" as="targetPoint" />
          </mxGeometry>
        </mxCell>
        <mxCell id="fRflyIPm7G6XwhnqCdcD-30" value="" style="endArrow=none;html=1;rounded=0;exitX=0.412;exitY=1.025;exitDx=0;exitDy=0;exitPerimeter=0;entryX=0.592;entryY=-0.045;entryDx=0;entryDy=0;entryPerimeter=0;" parent="1" source="fRflyIPm7G6XwhnqCdcD-19" target="fRflyIPm7G6XwhnqCdcD-25" edge="1">
          <mxGeometry relative="1" as="geometry">
            <mxPoint x="790" y="470" as="sourcePoint" />
            <mxPoint x="950" y="470" as="targetPoint" />
          </mxGeometry>
        </mxCell>
        <mxCell id="fRflyIPm7G6XwhnqCdcD-31" value="" style="endArrow=none;html=1;rounded=0;exitX=0.584;exitY=1.085;exitDx=0;exitDy=0;entryX=0.5;entryY=0;entryDx=0;entryDy=0;exitPerimeter=0;" parent="1" source="fRflyIPm7G6XwhnqCdcD-19" target="fRflyIPm7G6XwhnqCdcD-26" edge="1">
          <mxGeometry relative="1" as="geometry">
            <mxPoint x="800" y="470" as="sourcePoint" />
            <mxPoint x="960" y="470" as="targetPoint" />
          </mxGeometry>
        </mxCell>
        <mxCell id="fRflyIPm7G6XwhnqCdcD-32" value="" style="endArrow=none;html=1;rounded=0;exitX=0.656;exitY=1.065;exitDx=0;exitDy=0;exitPerimeter=0;entryX=0.5;entryY=0;entryDx=0;entryDy=0;" parent="1" source="fRflyIPm7G6XwhnqCdcD-19" target="fRflyIPm7G6XwhnqCdcD-27" edge="1">
          <mxGeometry relative="1" as="geometry">
            <mxPoint x="810" y="470" as="sourcePoint" />
            <mxPoint x="970" y="470" as="targetPoint" />
          </mxGeometry>
        </mxCell>
        <mxCell id="fRflyIPm7G6XwhnqCdcD-33" value="OrderDetail&lt;br&gt;" style="whiteSpace=wrap;html=1;align=center;" parent="1" vertex="1">
          <mxGeometry x="1060" y="370" width="100" height="40" as="geometry" />
        </mxCell>
        <mxCell id="fRflyIPm7G6XwhnqCdcD-34" value="flowerID" style="ellipse;whiteSpace=wrap;html=1;align=center;" parent="1" vertex="1">
          <mxGeometry x="1050" y="460" width="100" height="40" as="geometry" />
        </mxCell>
        <mxCell id="fRflyIPm7G6XwhnqCdcD-35" value="OrderID" style="ellipse;whiteSpace=wrap;html=1;align=center;" parent="1" vertex="1">
          <mxGeometry x="970" y="460" width="100" height="40" as="geometry" />
        </mxCell>
        <mxCell id="fRflyIPm7G6XwhnqCdcD-36" value="unitPrice" style="ellipse;whiteSpace=wrap;html=1;align=center;" parent="1" vertex="1">
          <mxGeometry x="1140" y="460" width="100" height="40" as="geometry" />
        </mxCell>
        <mxCell id="fRflyIPm7G6XwhnqCdcD-37" value="quantity" style="ellipse;whiteSpace=wrap;html=1;align=center;" parent="1" vertex="1">
          <mxGeometry x="1225" y="460" width="100" height="40" as="geometry" />
        </mxCell>
        <mxCell id="fRflyIPm7G6XwhnqCdcD-38" value="" style="endArrow=none;html=1;rounded=0;entryX=0.5;entryY=1;entryDx=0;entryDy=0;exitX=0.396;exitY=0.015;exitDx=0;exitDy=0;exitPerimeter=0;" parent="1" source="fRflyIPm7G6XwhnqCdcD-35" target="fRflyIPm7G6XwhnqCdcD-33" edge="1">
          <mxGeometry relative="1" as="geometry">
            <mxPoint x="880" y="440" as="sourcePoint" />
            <mxPoint x="1040" y="440" as="targetPoint" />
          </mxGeometry>
        </mxCell>
        <mxCell id="fRflyIPm7G6XwhnqCdcD-39" value="" style="endArrow=none;html=1;rounded=0;exitX=0.5;exitY=1;exitDx=0;exitDy=0;entryX=0.612;entryY=-0.025;entryDx=0;entryDy=0;entryPerimeter=0;" parent="1" source="fRflyIPm7G6XwhnqCdcD-33" target="fRflyIPm7G6XwhnqCdcD-34" edge="1">
          <mxGeometry relative="1" as="geometry">
            <mxPoint x="1100" y="430" as="sourcePoint" />
            <mxPoint x="1260" y="430" as="targetPoint" />
          </mxGeometry>
        </mxCell>
        <mxCell id="fRflyIPm7G6XwhnqCdcD-40" value="" style="endArrow=none;html=1;rounded=0;exitX=0.64;exitY=1.045;exitDx=0;exitDy=0;exitPerimeter=0;entryX=0.648;entryY=0.075;entryDx=0;entryDy=0;entryPerimeter=0;" parent="1" source="fRflyIPm7G6XwhnqCdcD-33" target="fRflyIPm7G6XwhnqCdcD-36" edge="1">
          <mxGeometry relative="1" as="geometry">
            <mxPoint x="1130" y="440" as="sourcePoint" />
            <mxPoint x="1290" y="440" as="targetPoint" />
          </mxGeometry>
        </mxCell>
        <mxCell id="fRflyIPm7G6XwhnqCdcD-41" value="" style="endArrow=none;html=1;rounded=0;exitX=0.75;exitY=1;exitDx=0;exitDy=0;entryX=0.5;entryY=0;entryDx=0;entryDy=0;" parent="1" source="fRflyIPm7G6XwhnqCdcD-33" target="fRflyIPm7G6XwhnqCdcD-37" edge="1">
          <mxGeometry relative="1" as="geometry">
            <mxPoint x="1200" y="430" as="sourcePoint" />
            <mxPoint x="1360" y="430" as="targetPoint" />
          </mxGeometry>
        </mxCell>
        <mxCell id="fRflyIPm7G6XwhnqCdcD-43" value="" style="endArrow=none;html=1;rounded=0;exitX=0.5;exitY=1;exitDx=0;exitDy=0;entryX=0.5;entryY=0;entryDx=0;entryDy=0;" parent="1" source="Blp7HSIRBuZ5sZzYRlGd-2" target="Blp7HSIRBuZ5sZzYRlGd-15" edge="1">
          <mxGeometry relative="1" as="geometry">
            <mxPoint x="270" y="320" as="sourcePoint" />
            <mxPoint x="430" y="320" as="targetPoint" />
          </mxGeometry>
        </mxCell>
        <mxCell id="fRflyIPm7G6XwhnqCdcD-44" value="1" style="text;html=1;strokeColor=none;fillColor=none;align=center;verticalAlign=middle;whiteSpace=wrap;rounded=0;" parent="1" vertex="1">
          <mxGeometry x="280" y="230" width="60" height="30" as="geometry" />
        </mxCell>
        <mxCell id="fRflyIPm7G6XwhnqCdcD-45" value="1" style="text;html=1;strokeColor=none;fillColor=none;align=center;verticalAlign=middle;whiteSpace=wrap;rounded=0;" parent="1" vertex="1">
          <mxGeometry x="220" y="375" width="60" height="30" as="geometry" />
        </mxCell>
        <mxCell id="fRflyIPm7G6XwhnqCdcD-46" value="" style="endArrow=none;html=1;rounded=0;exitX=1;exitY=0;exitDx=0;exitDy=0;entryX=0.5;entryY=0;entryDx=0;entryDy=0;" parent="1" source="fRflyIPm7G6XwhnqCdcD-44" target="Blp7HSIRBuZ5sZzYRlGd-39" edge="1">
          <mxGeometry relative="1" as="geometry">
            <mxPoint x="360" y="400" as="sourcePoint" />
            <mxPoint x="520" y="400" as="targetPoint" />
          </mxGeometry>
        </mxCell>
        <mxCell id="fRflyIPm7G6XwhnqCdcD-47" value="1" style="text;html=1;strokeColor=none;fillColor=none;align=center;verticalAlign=middle;whiteSpace=wrap;rounded=0;" parent="1" vertex="1">
          <mxGeometry x="330" y="230" width="60" height="30" as="geometry" />
        </mxCell>
        <mxCell id="fRflyIPm7G6XwhnqCdcD-48" value="1" style="text;html=1;strokeColor=none;fillColor=none;align=center;verticalAlign=middle;whiteSpace=wrap;rounded=0;" parent="1" vertex="1">
          <mxGeometry x="400" y="480" width="60" height="30" as="geometry" />
        </mxCell>
        <mxCell id="fRflyIPm7G6XwhnqCdcD-49" value="" style="endArrow=none;html=1;rounded=0;exitX=1;exitY=0.5;exitDx=0;exitDy=0;entryX=0;entryY=0.5;entryDx=0;entryDy=0;" parent="1" source="Blp7HSIRBuZ5sZzYRlGd-2" target="Blp7HSIRBuZ5sZzYRlGd-58" edge="1">
          <mxGeometry relative="1" as="geometry">
            <mxPoint x="460" y="220" as="sourcePoint" />
            <mxPoint x="620" y="220" as="targetPoint" />
          </mxGeometry>
        </mxCell>
        <mxCell id="fRflyIPm7G6XwhnqCdcD-50" value="1" style="text;html=1;strokeColor=none;fillColor=none;align=center;verticalAlign=middle;whiteSpace=wrap;rounded=0;" parent="1" vertex="1">
          <mxGeometry x="360" y="200" width="60" height="30" as="geometry" />
        </mxCell>
        <mxCell id="fRflyIPm7G6XwhnqCdcD-51" value="1" style="text;html=1;strokeColor=none;fillColor=none;align=center;verticalAlign=middle;whiteSpace=wrap;rounded=0;" parent="1" vertex="1">
          <mxGeometry x="740" y="170" width="60" height="30" as="geometry" />
        </mxCell>
        <mxCell id="fRflyIPm7G6XwhnqCdcD-52" value="has" style="shape=rhombus;perimeter=rhombusPerimeter;whiteSpace=wrap;html=1;align=center;" parent="1" vertex="1">
          <mxGeometry x="720" y="270" width="120" height="60" as="geometry" />
        </mxCell>
        <mxCell id="fRflyIPm7G6XwhnqCdcD-53" value="" style="endArrow=none;html=1;rounded=0;entryX=0.424;entryY=1.035;entryDx=0;entryDy=0;entryPerimeter=0;exitX=0.5;exitY=0;exitDx=0;exitDy=0;" parent="1" source="fRflyIPm7G6XwhnqCdcD-52" target="Blp7HSIRBuZ5sZzYRlGd-58" edge="1">
          <mxGeometry relative="1" as="geometry">
            <mxPoint x="600" y="260" as="sourcePoint" />
            <mxPoint x="760" y="260" as="targetPoint" />
          </mxGeometry>
        </mxCell>
        <mxCell id="fRflyIPm7G6XwhnqCdcD-54" value="" style="endArrow=none;html=1;rounded=0;entryX=0.5;entryY=1;entryDx=0;entryDy=0;exitX=0.5;exitY=0;exitDx=0;exitDy=0;" parent="1" source="fRflyIPm7G6XwhnqCdcD-19" target="fRflyIPm7G6XwhnqCdcD-52" edge="1">
          <mxGeometry relative="1" as="geometry">
            <mxPoint x="620" y="370" as="sourcePoint" />
            <mxPoint x="780" y="370" as="targetPoint" />
          </mxGeometry>
        </mxCell>
        <mxCell id="fRflyIPm7G6XwhnqCdcD-55" value="1" style="text;html=1;strokeColor=none;fillColor=none;align=center;verticalAlign=middle;whiteSpace=wrap;rounded=0;" parent="1" vertex="1">
          <mxGeometry x="800" y="220" width="60" height="30" as="geometry" />
        </mxCell>
        <mxCell id="fRflyIPm7G6XwhnqCdcD-56" value="N" style="text;html=1;strokeColor=none;fillColor=none;align=center;verticalAlign=middle;whiteSpace=wrap;rounded=0;" parent="1" vertex="1">
          <mxGeometry x="720" y="375" width="60" height="30" as="geometry" />
        </mxCell>
        <mxCell id="fRflyIPm7G6XwhnqCdcD-57" value="" style="endArrow=none;html=1;rounded=0;exitX=1;exitY=0.5;exitDx=0;exitDy=0;entryX=0.588;entryY=-0.135;entryDx=0;entryDy=0;entryPerimeter=0;" parent="1" source="fRflyIPm7G6XwhnqCdcD-19" target="fRflyIPm7G6XwhnqCdcD-1" edge="1">
          <mxGeometry relative="1" as="geometry">
            <mxPoint x="830" y="430" as="sourcePoint" />
            <mxPoint x="990" y="430" as="targetPoint" />
          </mxGeometry>
        </mxCell>
        <mxCell id="fRflyIPm7G6XwhnqCdcD-58" value="N" style="text;html=1;strokeColor=none;fillColor=none;align=center;verticalAlign=middle;whiteSpace=wrap;rounded=0;" parent="1" vertex="1">
          <mxGeometry x="990" y="620" width="60" height="30" as="geometry" />
        </mxCell>
        <mxCell id="fRflyIPm7G6XwhnqCdcD-59" value="1" style="text;html=1;strokeColor=none;fillColor=none;align=center;verticalAlign=middle;whiteSpace=wrap;rounded=0;" parent="1" vertex="1">
          <mxGeometry x="760" y="420" width="60" height="30" as="geometry" />
        </mxCell>
        <mxCell id="7tfvniu2Gn-SUXc64ZJs-1" value="" style="endArrow=none;html=1;rounded=0;exitX=1;exitY=0.25;exitDx=0;exitDy=0;entryX=0;entryY=0.5;entryDx=0;entryDy=0;" parent="1" source="fRflyIPm7G6XwhnqCdcD-19" target="fRflyIPm7G6XwhnqCdcD-33" edge="1">
          <mxGeometry relative="1" as="geometry">
            <mxPoint x="830" y="350" as="sourcePoint" />
            <mxPoint x="990" y="350" as="targetPoint" />
          </mxGeometry>
        </mxCell>
        <mxCell id="7tfvniu2Gn-SUXc64ZJs-2" value="N" style="text;html=1;strokeColor=none;fillColor=none;align=center;verticalAlign=middle;whiteSpace=wrap;rounded=0;" parent="1" vertex="1">
          <mxGeometry x="1020" y="360" width="60" height="30" as="geometry" />
        </mxCell>
        <mxCell id="7tfvniu2Gn-SUXc64ZJs-3" value="" style="endArrow=none;html=1;rounded=0;entryX=0;entryY=0.5;entryDx=0;entryDy=0;exitX=1;exitY=0.5;exitDx=0;exitDy=0;" parent="1" source="fRflyIPm7G6XwhnqCdcD-1" target="fRflyIPm7G6XwhnqCdcD-7" edge="1">
          <mxGeometry relative="1" as="geometry">
            <mxPoint x="1070" y="600" as="sourcePoint" />
            <mxPoint x="1230" y="600" as="targetPoint" />
          </mxGeometry>
        </mxCell>
        <mxCell id="7tfvniu2Gn-SUXc64ZJs-4" value="1" style="text;html=1;strokeColor=none;fillColor=none;align=center;verticalAlign=middle;whiteSpace=wrap;rounded=0;" parent="1" vertex="1">
          <mxGeometry x="1040" y="640" width="60" height="30" as="geometry" />
        </mxCell>
        <mxCell id="7tfvniu2Gn-SUXc64ZJs-5" value="N" style="text;html=1;strokeColor=none;fillColor=none;align=center;verticalAlign=middle;whiteSpace=wrap;rounded=0;" parent="1" vertex="1">
          <mxGeometry x="1290" y="620" width="60" height="30" as="geometry" />
        </mxCell>
        <mxCell id="7tfvniu2Gn-SUXc64ZJs-6" value="" style="endArrow=none;html=1;rounded=0;entryX=0;entryY=0.75;entryDx=0;entryDy=0;exitX=1;exitY=0.5;exitDx=0;exitDy=0;" parent="1" source="Blp7HSIRBuZ5sZzYRlGd-39" target="fRflyIPm7G6XwhnqCdcD-19" edge="1">
          <mxGeometry relative="1" as="geometry">
            <mxPoint x="420" y="440" as="sourcePoint" />
            <mxPoint x="580" y="440" as="targetPoint" />
          </mxGeometry>
        </mxCell>
        <mxCell id="7tfvniu2Gn-SUXc64ZJs-7" value="1" style="text;html=1;strokeColor=none;fillColor=none;align=center;verticalAlign=middle;whiteSpace=wrap;rounded=0;" parent="1" vertex="1">
          <mxGeometry x="460" y="480" width="60" height="30" as="geometry" />
        </mxCell>
        <mxCell id="7tfvniu2Gn-SUXc64ZJs-8" value="N" style="text;html=1;strokeColor=none;fillColor=none;align=center;verticalAlign=middle;whiteSpace=wrap;rounded=0;" parent="1" vertex="1">
          <mxGeometry x="630" y="410" width="60" height="30" as="geometry" />
        </mxCell>
        <mxCell id="kSwtvcgSXqmSabdrawwy-1" value="Feedback" style="whiteSpace=wrap;html=1;align=center;" vertex="1" parent="1">
          <mxGeometry x="1100" y="150" width="100" height="40" as="geometry" />
        </mxCell>
        <mxCell id="kSwtvcgSXqmSabdrawwy-2" value="CusId" style="ellipse;whiteSpace=wrap;html=1;align=center;" vertex="1" parent="1">
          <mxGeometry x="1110" width="100" height="40" as="geometry" />
        </mxCell>
        <mxCell id="kSwtvcgSXqmSabdrawwy-3" value="FeedbackId" style="ellipse;whiteSpace=wrap;html=1;align=center;fontStyle=4;" vertex="1" parent="1">
          <mxGeometry x="1010" y="-10" width="100" height="40" as="geometry" />
        </mxCell>
        <mxCell id="kSwtvcgSXqmSabdrawwy-4" value="OrderID" style="ellipse;whiteSpace=wrap;html=1;align=center;" vertex="1" parent="1">
          <mxGeometry x="1200" width="100" height="40" as="geometry" />
        </mxCell>
        <mxCell id="kSwtvcgSXqmSabdrawwy-5" value="Description" style="ellipse;whiteSpace=wrap;html=1;align=center;" vertex="1" parent="1">
          <mxGeometry x="1300" width="100" height="40" as="geometry" />
        </mxCell>
        <mxCell id="kSwtvcgSXqmSabdrawwy-6" value="" style="endArrow=none;html=1;rounded=0;exitX=1;exitY=0.5;exitDx=0;exitDy=0;entryX=0;entryY=0.75;entryDx=0;entryDy=0;" edge="1" parent="1" source="Blp7HSIRBuZ5sZzYRlGd-58" target="kSwtvcgSXqmSabdrawwy-1">
          <mxGeometry relative="1" as="geometry">
            <mxPoint x="920" y="190" as="sourcePoint" />
            <mxPoint x="1080" y="190" as="targetPoint" />
          </mxGeometry>
        </mxCell>
        <mxCell id="kSwtvcgSXqmSabdrawwy-7" value="" style="endArrow=none;html=1;rounded=0;entryX=0;entryY=1;entryDx=0;entryDy=0;" edge="1" parent="1" source="fRflyIPm7G6XwhnqCdcD-19" target="kSwtvcgSXqmSabdrawwy-1">
          <mxGeometry relative="1" as="geometry">
            <mxPoint x="780" y="360" as="sourcePoint" />
            <mxPoint x="940" y="360" as="targetPoint" />
          </mxGeometry>
        </mxCell>
        <mxCell id="kSwtvcgSXqmSabdrawwy-8" value="" style="endArrow=none;html=1;rounded=0;exitX=0.5;exitY=1;exitDx=0;exitDy=0;entryX=0.5;entryY=0;entryDx=0;entryDy=0;" edge="1" parent="1" source="kSwtvcgSXqmSabdrawwy-3" target="kSwtvcgSXqmSabdrawwy-1">
          <mxGeometry relative="1" as="geometry">
            <mxPoint x="1040" y="90" as="sourcePoint" />
            <mxPoint x="1200" y="90" as="targetPoint" />
          </mxGeometry>
        </mxCell>
        <mxCell id="kSwtvcgSXqmSabdrawwy-9" value="" style="endArrow=none;html=1;rounded=0;exitX=0.5;exitY=1;exitDx=0;exitDy=0;entryX=0.656;entryY=0.035;entryDx=0;entryDy=0;entryPerimeter=0;" edge="1" parent="1" source="kSwtvcgSXqmSabdrawwy-2" target="kSwtvcgSXqmSabdrawwy-1">
          <mxGeometry relative="1" as="geometry">
            <mxPoint x="1310" y="130" as="sourcePoint" />
            <mxPoint x="1470" y="130" as="targetPoint" />
          </mxGeometry>
        </mxCell>
        <mxCell id="kSwtvcgSXqmSabdrawwy-10" value="" style="endArrow=none;html=1;rounded=0;exitX=0.5;exitY=1;exitDx=0;exitDy=0;" edge="1" parent="1" source="kSwtvcgSXqmSabdrawwy-4" target="kSwtvcgSXqmSabdrawwy-1">
          <mxGeometry relative="1" as="geometry">
            <mxPoint x="1320" y="130" as="sourcePoint" />
            <mxPoint x="1480" y="130" as="targetPoint" />
          </mxGeometry>
        </mxCell>
        <mxCell id="kSwtvcgSXqmSabdrawwy-11" value="" style="endArrow=none;html=1;rounded=0;entryX=0.296;entryY=1.055;entryDx=0;entryDy=0;entryPerimeter=0;exitX=0.75;exitY=0;exitDx=0;exitDy=0;" edge="1" parent="1" source="kSwtvcgSXqmSabdrawwy-1" target="kSwtvcgSXqmSabdrawwy-5">
          <mxGeometry relative="1" as="geometry">
            <mxPoint x="1180" y="120" as="sourcePoint" />
            <mxPoint x="1460" y="130" as="targetPoint" />
          </mxGeometry>
        </mxCell>
        <mxCell id="kSwtvcgSXqmSabdrawwy-12" value="1" style="text;html=1;strokeColor=none;fillColor=none;align=center;verticalAlign=middle;whiteSpace=wrap;rounded=0;" vertex="1" parent="1">
          <mxGeometry x="770" y="380" width="60" height="30" as="geometry" />
        </mxCell>
        <mxCell id="kSwtvcgSXqmSabdrawwy-13" value="N" style="text;html=1;strokeColor=none;fillColor=none;align=center;verticalAlign=middle;whiteSpace=wrap;rounded=0;" vertex="1" parent="1">
          <mxGeometry x="1050" y="155" width="60" height="30" as="geometry" />
        </mxCell>
        <mxCell id="kSwtvcgSXqmSabdrawwy-14" value="1" style="text;html=1;strokeColor=none;fillColor=none;align=center;verticalAlign=middle;whiteSpace=wrap;rounded=0;" vertex="1" parent="1">
          <mxGeometry x="1070" y="195" width="60" height="30" as="geometry" />
        </mxCell>
        <mxCell id="kSwtvcgSXqmSabdrawwy-15" value="1" style="text;html=1;strokeColor=none;fillColor=none;align=center;verticalAlign=middle;whiteSpace=wrap;rounded=0;" vertex="1" parent="1">
          <mxGeometry x="870" y="170" width="60" height="30" as="geometry" />
        </mxCell>
      </root>
    </mxGraphModel>
  </diagram>
</mxfile>
